<svg width="24" height="24" viewBox="0 0 24 24" fill="none" xmlns="http://www.w3.org/2000/svg">
<path d="M21.5202 9.53797C21.5202 9.29315 21.4231 9.05835 21.2504 8.88524C21.0776 8.71212 20.8432 8.61486 20.5989 8.61486C20.3545 8.61486 20.1202 8.71212 19.9474 8.88524C19.7746 9.05835 19.6776 9.29315 19.6776 9.53797H21.5202ZM4.32242 9.53797C4.32242 9.29315 4.22536 9.05835 4.05258 8.88524C3.8798 8.71212 3.64546 8.61486 3.40112 8.61486C3.15677 8.61486 2.92243 8.71212 2.74965 8.88524C2.57687 9.05835 2.47981 9.29315 2.47981 9.53797H4.32242ZM22.4047 12.6519C22.489 12.7426 22.5907 12.8154 22.7037 12.8658C22.8167 12.9163 22.9387 12.9434 23.0624 12.9456C23.1861 12.9478 23.309 12.925 23.4237 12.8785C23.5385 12.8321 23.6427 12.763 23.7302 12.6754C23.8176 12.5877 23.8866 12.4833 23.9329 12.3683C23.9793 12.2534 24.002 12.1303 23.9999 12.0063C23.9977 11.8824 23.9706 11.7602 23.9202 11.6469C23.8699 11.5337 23.7973 11.4318 23.7068 11.3473L22.4047 12.6519ZM12 0.922296L12.6511 0.269966C12.4783 0.0970982 12.2441 0 12 0C11.7559 0 11.5217 0.0970982 11.3489 0.269966L12 0.922296ZM0.293232 11.3473C0.202715 11.4318 0.130113 11.5337 0.0797577 11.6469C0.0294027 11.7602 0.00232601 11.8824 0.000143382 12.0063C-0.00203924 12.1303 0.0207166 12.2534 0.0670536 12.3683C0.113391 12.4833 0.182359 12.5877 0.269845 12.6754C0.357331 12.763 0.461542 12.8321 0.576262 12.8785C0.690981 12.925 0.813857 12.9478 0.937562 12.9456C1.06127 12.9434 1.18326 12.9163 1.29628 12.8658C1.40929 12.8154 1.511 12.7426 1.59535 12.6519L0.293232 11.3473ZM5.85794 24L18.1421 24V22.1538L5.85794 22.1538V24ZM21.5202 20.6153L21.5202 9.53797H19.6776L19.6776 20.6153H21.5202ZM4.32242 20.6153L4.32242 9.53797H2.47981L2.47981 20.6153H4.32242ZM23.7068 11.3473L12.6511 0.269966L11.3489 1.57463L22.4047 12.6519L23.7068 11.3473ZM11.3489 0.269966L0.293232 11.3473L1.59535 12.6519L12.6511 1.57463L11.3489 0.269966ZM18.1421 24C19.038 24 19.8972 23.6434 20.5308 23.0086C21.1643 22.3739 21.5202 21.513 21.5202 20.6153H19.6776C19.6776 21.4645 18.9897 22.1538 18.1421 22.1538V24ZM5.85794 22.1538C5.01033 22.1538 4.32242 21.4645 4.32242 20.6153H2.47981C2.47981 21.513 2.83572 22.3739 3.46924 23.0086C4.10276 23.6434 4.962 24 5.85794 24V22.1538Z" fill="black"/>
</svg>
